<svg width="66" height="66" viewBox="0 0 66 66" fill="none" xmlns="http://www.w3.org/2000/svg">
<rect x="7" y="3" width="52" height="52" rx="14" fill="#F97316"/>
<rect x="7" y="3" width="52" height="52" rx="14" stroke="white" stroke-width="4"/>
<g filter="url(#filter0_dd_6_45)">
<rect x="5" y="1" width="56" height="56" rx="16" fill="white" fill-opacity="0.01" shape-rendering="crispEdges"/>
</g>
<path d="M34.5 17V23C34.5 23.8297 35.1703 24.5 36 24.5H42V38C42 39.6547 40.6547 41 39 41H27C25.3453 41 24 39.6547 24 38V20C24 18.3453 25.3453 17 27 17H34.5ZM28.875 26.1875C28.3594 26.1875 27.9375 26.6094 27.9375 27.125V33.875C27.9375 34.3906 nan nan 28.875 34.8125C29.3906 34.8125 29.8125 34.3906 29.8125 33.875V31.8125H30.7451C30.7779 31.8547 30.8113 31.8971 30.8535 31.9346L33.8906 34.7842L32.3623 36.1855C31.9826 36.5371 nan nan 32.3066 37.5127C32.6582 37.8921 33.2532 37.9198 33.6328 37.5684L35.2686 36.0684L36.8574 37.5596C37.2371 37.9158 nan nan 38.1846 37.5176C38.5408 37.1379 38.5222 36.5467 38.1426 36.1904L36.6562 34.7988L38.1377 33.4395C38.5174 33.0879 nan nan 38.1934 32.1123C37.8418 31.7329 37.2468 31.7052 36.8672 32.0566L35.2832 33.5098L33.2676 31.6201C34.3174 31.2122 35.0625 30.1952 35.0625 29C35.0625 27.4484 33.8016 26.1875 32.25 26.1875H28.875ZM32.25 28.0625C32.7656 28.0625 nan nan 33.1875 29C33.1875 29.5156 32.7656 29.9375 32.25 29.9375H29.8125V28.0625H32.25ZM42 23H36V17L42 23Z" fill="white"/>
<defs>
<filter id="filter0_dd_6_45" x="0" y="0" width="66" height="66" filterUnits="userSpaceOnUse" color-interpolation-filters="sRGB">
<feFlood flood-opacity="0" result="BackgroundImageFix"/>
<feColorMatrix in="SourceAlpha" type="matrix" values="0 0 0 0 0 0 0 0 0 0 0 0 0 0 0 0 0 0 127 0" result="hardAlpha"/>
<feMorphology radius="2" operator="erode" in="SourceAlpha" result="effect1_dropShadow_6_45"/>
<feOffset dy="2"/>
<feGaussianBlur stdDeviation="2"/>
<feComposite in2="hardAlpha" operator="out"/>
<feColorMatrix type="matrix" values="0 0 0 0 0 0 0 0 0 0 0 0 0 0 0 0 0 0 0.1 0"/>
<feBlend mode="normal" in2="BackgroundImageFix" result="effect1_dropShadow_6_45"/>
<feColorMatrix in="SourceAlpha" type="matrix" values="0 0 0 0 0 0 0 0 0 0 0 0 0 0 0 0 0 0 127 0" result="hardAlpha"/>
<feMorphology radius="1" operator="erode" in="SourceAlpha" result="effect2_dropShadow_6_45"/>
<feOffset dy="4"/>
<feGaussianBlur stdDeviation="3"/>
<feComposite in2="hardAlpha" operator="out"/>
<feColorMatrix type="matrix" values="0 0 0 0 0 0 0 0 0 0 0 0 0 0 0 0 0 0 0.1 0"/>
<feBlend mode="normal" in2="effect1_dropShadow_6_45" result="effect2_dropShadow_6_45"/>
<feBlend mode="normal" in="SourceGraphic" in2="effect2_dropShadow_6_45" result="shape"/>
</filter>
</defs>
</svg>
