<svg width="499" height="574" viewBox="0 0 499 574" fill="none" xmlns="http://www.w3.org/2000/svg">
<path d="M459.53 7.33093C494.529 24.6574 508.802 67.1843 491.409 102.317C474.656 136.158 434.635 150.794 400.436 136.341C378.27 157.59 367.147 190.072 362.43 217.842C388.995 249.563 395.911 295.221 376.377 334.679C368.386 350.82 356.885 364.07 343.255 373.964C347.465 398.238 359.722 421.536 372.766 440.123C403.388 424.217 441.857 432.677 462.729 461.453C485.711 493.137 478.657 537.452 446.973 560.434C415.289 583.416 370.973 576.361 347.992 544.678C325.12 513.146 331.998 469.105 363.294 446.03C352.727 424.087 335.66 403.485 319.084 387.157C291.885 397.762 260.49 397.323 232.266 383.351C187.655 361.266 165.126 312.38 174.505 265.792C159.459 263.689 145.227 264.11 133.803 265.657C121.487 289.372 96.2167 305.08 67.7624 303.83C28.659 302.112 -1.64829 269.02 0.0694594 229.916C1.78731 190.813 34.8799 160.505 73.9834 162.223C113.023 163.938 143.295 196.926 141.683 235.947C152.73 243.907 165.373 248.666 178.569 251.105C179.99 247.102 181.661 243.14 183.593 239.239C209.44 187.029 271.997 165.064 324.616 189.099C354.373 175.484 373.209 149.814 383.945 126.573C358.366 106.274 349.541 70.128 364.667 39.5728C382.06 4.43987 424.531 -9.99539 459.53 7.33093Z" fill="#D9D9D9"/>
</svg>
