<svg width="303" height="64" viewBox="0 0 303 64" fill="none" xmlns="http://www.w3.org/2000/svg">
<g clip-path="url(#clip0_1_2)">
<path d="M32.76 23.96V61.58C32.76 62.5299 33.5301 63.3 34.48 63.3H35.76C36.7099 63.3 37.48 62.5299 37.48 61.58V23.96C37.48 23.0101 36.7099 22.24 35.76 22.24H34.48C33.5301 22.24 32.76 23.0101 32.76 23.96Z" fill="#64275C"/>
<path d="M26.09 23.96L26.09 61.58C26.09 62.5299 26.8601 63.3 27.81 63.3H29.09C30.0399 63.3 30.81 62.5299 30.81 61.58L30.81 23.96C30.81 23.0101 30.0399 22.24 29.09 22.24H27.81C26.8601 22.24 26.09 23.0101 26.09 23.96Z" fill="#FEBE4A"/>
<path d="M19.35 23.96L19.35 61.58C19.35 62.5299 20.1201 63.3 21.07 63.3H22.35C23.2999 63.3 24.07 62.5299 24.07 61.58L24.07 23.96C24.07 23.0101 23.2999 22.24 22.35 22.24H21.07C20.1201 22.24 19.35 23.0101 19.35 23.96Z" fill="#909CA4"/>
<path d="M12.62 23.96L12.62 61.58C12.62 62.5299 13.3901 63.3 14.34 63.3H15.62C16.5699 63.3 17.34 62.5299 17.34 61.58L17.34 23.96C17.34 23.0101 16.5699 22.24 15.62 22.24H14.34C13.3901 22.24 12.62 23.0101 12.62 23.96Z" fill="#B2C0C9"/>
<path d="M254.3 1.01H256.39V15.44H263.3V17.19H254.3V1.01Z" fill="#54265D"/>
<path d="M273.79 2.78H268.87V1H280.85V2.78H275.9V17.18H273.79V2.78Z" fill="#54265D"/>
<path d="M287.93 1.23C289.2 1.04 290.71 0.89 292.37 0.89C295.37 0.89 297.51 1.59 298.92 2.91C300.36 4.23 301.2 6.1 301.2 8.72C301.2 11.34 300.38 13.52 298.87 15.01C297.36 16.52 294.86 17.34 291.72 17.34C290.23 17.34 288.98 17.27 287.93 17.15V1.23ZM290.02 15.53C290.55 15.63 291.32 15.65 292.13 15.65C296.59 15.65 299.02 13.15 299.02 8.78C299.04 4.96 296.88 2.54 292.47 2.54C291.39 2.54 290.57 2.63 290.02 2.76V15.53Z" fill="#54265D"/>
<path d="M83.08 56.77L82.07 59.17C80.06 60.19 78.09 60.92 76.17 61.37C74.25 61.83 72.15 62.05 69.88 62.05C67.22 62.05 64.74 61.71 62.45 61.04C60.16 60.37 58.17 59.41 56.46 58.17C54.75 56.92 53.35 55.53 52.27 53.98C51.19 52.43 50.36 50.75 49.79 48.94C49.22 47.13 48.94 45.14 48.94 42.97C48.94 37.49 50.85 32.95 54.68 29.34C58.5 25.74 63.73 23.94 70.34 23.94C71.9 23.94 73.35 24.03 74.68 24.21C76.01 24.39 77.64 24.74 79.55 25.24C81.47 25.75 82.64 26.04 83.07 26.13C82.69 27.08 82.41 28 82.22 28.91C81.95 30.37 81.76 32.07 81.65 33.99H80.03L80 30.95C79.83 29.27 78.9 28.01 77.2 27.19C75.5 26.37 73.03 25.95 69.76 25.95C67.32 25.99 65.25 26.3 63.55 26.89C61.85 27.48 60.35 28.42 59.05 29.7C57.75 30.98 56.69 32.61 55.87 34.57C55.04 36.54 54.62 39.01 54.61 41.98C54.61 47.19 56.2 51.38 59.38 54.55C62.56 57.72 66.76 59.31 71.99 59.31C74.35 59.31 76.53 58.99 78.54 58.33C79.92 57.88 81.28 57.18 82.64 56.22L83.08 56.76V56.77Z" fill="#2B4158"/>
<path d="M92.32 57.64V56.66C93.1 56.3 93.6 56.01 93.81 55.79C93.94 55.68 94.02 55.53 94.07 55.36C94.18 55.01 94.26 54.25 94.3 53.09C94.35 51.36 94.38 50.34 94.38 50.01V39.84C94.38 38.13 94.36 36.45 94.32 34.81C94.28 33.61 94.19 32.9 94.05 32.68C93.91 32.46 93.67 32.3 93.35 32.19C93.03 32.08 92.12 32.02 90.62 31.99V30.78C93.7 30.88 95.6 30.93 96.33 30.93C97.14 30.93 98.95 30.88 101.76 30.78V31.99C100.26 32.02 99.35 32.08 99.03 32.19C98.71 32.3 98.48 32.45 98.36 32.63C98.21 32.88 98.11 33.49 98.08 34.46C98.07 34.71 98.04 36.5 98 39.83V52.54C98 53.86 98.03 54.94 98.08 55.77C99.52 55.86 100.94 55.9 102.35 55.9C105.9 55.9 108.39 55.67 109.82 55.22C109.98 54.84 110.13 54.41 110.25 53.92L111.01 50.78H112.28C112 52.66 111.73 54.86 111.47 57.4C110.95 57.5 110.54 57.56 110.24 57.59C109.58 57.63 108.58 57.65 107.21 57.65L96.02 57.5C94.81 57.5 93.58 57.55 92.33 57.65L92.32 57.64Z" fill="#2B4158"/>
<path d="M121.11 57.64V56.45C122.43 56.44 123.3 56.34 123.72 56.15C123.9 56.07 124.02 55.96 124.1 55.79C124.23 55.54 124.31 54.88 124.36 53.8C124.44 52.14 124.47 50.7 124.47 49.49V39.83C124.47 38.12 124.45 36.44 124.41 34.8C124.37 33.6 124.28 32.89 124.14 32.67C124 32.45 123.76 32.29 123.44 32.18C123.12 32.07 122.21 32.01 120.71 31.98V30.77L126.1 30.88L131.81 30.79C134.54 30.75 136.53 30.73 137.77 30.73C139.01 30.73 140.2 30.8 141.31 30.94C141.11 31.66 140.97 32.28 140.89 32.81C140.86 32.92 140.75 34.24 140.55 36.74H139.36C139.37 35.45 139.29 34.28 139.11 33.22C138.42 32.93 137.65 32.74 136.82 32.63C135.41 32.45 134 32.37 132.58 32.37C132.28 32.37 131.6 32.4 130.56 32.45C129.51 32.5 128.76 32.54 128.31 32.58C128.26 33.98 128.22 35.29 128.2 36.51L128.12 42.9C129.59 42.98 130.95 43.01 132.19 43.01C133.69 43.01 134.97 42.94 136.03 42.8C136.43 42.75 136.69 42.65 136.81 42.5C136.93 42.35 137.02 41.83 137.11 40.95L137.22 39.63H138.35V39.99L138.26 43.92L138.35 48.33H137.03L136.97 47.04C136.94 46.11 136.86 45.53 136.71 45.3C136.56 45.07 136.29 44.92 135.89 44.83C135.17 44.68 133.78 44.6 131.71 44.6C130.87 44.6 129.67 44.63 128.12 44.69C128.06 45.95 128.03 47.82 128.03 50.31C128.03 52.64 128.06 54.41 128.12 55.62C129.94 55.76 131.97 55.83 134.23 55.83C135.83 55.83 136.97 55.78 137.65 55.68C138.33 55.58 138.96 55.41 139.54 55.17C139.69 54.78 139.84 54.25 139.99 53.58C140.27 52.46 140.45 51.61 140.54 51.05H141.79C141.46 53.6 141.3 55.71 141.3 57.38C140.22 57.54 138.9 57.63 137.35 57.63L126.06 57.48C125.9 57.48 124.24 57.53 121.11 57.63V57.64Z" fill="#2B4158"/>
<path d="M150.34 31.98V30.77C151.66 30.82 152.93 30.85 154.14 30.85C155.35 30.85 156.53 30.83 157.66 30.77C158.77 33.29 159.78 35.5 160.7 37.41L167.87 52.16L174.34 38.64C176.11 34.96 177.28 32.34 177.88 30.77C179.22 30.82 180.34 30.85 181.26 30.85C182.1 30.85 183.47 30.83 185.36 30.77V31.98C183.86 32.01 182.95 32.07 182.63 32.18C182.31 32.29 182.08 32.44 181.96 32.62C181.8 32.87 181.7 33.48 181.68 34.45C181.67 34.7 181.64 36.49 181.59 39.82V48.57C181.59 50.28 181.62 51.95 181.67 53.58C181.71 54.78 181.8 55.49 181.94 55.72C182.08 55.95 182.32 56.12 182.64 56.22C182.96 56.33 183.87 56.39 185.37 56.42V57.63C182.82 57.52 181.03 57.46 179.98 57.46C179.14 57.46 177.27 57.52 174.38 57.63V56.42C175.88 56.4 176.79 56.33 177.12 56.22C177.45 56.11 177.67 55.96 177.78 55.78C177.94 55.53 178.04 54.92 178.06 53.95C178.07 53.69 178.1 51.9 178.15 48.58V34.7L171.63 48.35C170.61 50.48 169.81 52.2 169.23 53.49C168.81 54.44 168.18 55.94 167.34 57.99H166.6C166.44 57.51 166.29 57.13 166.15 56.84L164.86 54.1L155.82 35.32V48.57C155.82 50.28 155.85 51.95 155.9 53.58C155.94 54.78 156.03 55.49 156.17 55.72C156.31 55.95 156.55 56.12 156.87 56.22C157.19 56.33 158.1 56.39 159.6 56.42V57.63L155.04 57.48L150.33 57.63V56.42C151.82 56.4 152.72 56.33 153.05 56.22C153.38 56.11 153.6 55.96 153.73 55.78C153.88 55.53 153.98 54.92 154.01 53.95C154.02 53.69 154.05 51.9 154.09 48.58V39.83C154.09 38.12 154.07 36.44 154.03 34.8C153.99 33.6 153.9 32.89 153.76 32.67C153.62 32.45 153.38 32.29 153.06 32.18C152.74 32.07 151.83 32.01 150.33 31.98H150.34Z" fill="#2B4158"/>
<path d="M193.78 57.64V56.45C195.1 56.44 195.97 56.34 196.39 56.15C196.57 56.07 196.69 55.96 196.77 55.79C196.9 55.54 196.98 54.88 197.03 53.8C197.11 52.14 197.14 50.7 197.14 49.49V39.83C197.14 38.12 197.12 36.44 197.08 34.8C197.04 33.6 196.95 32.89 196.81 32.67C196.67 32.45 196.43 32.29 196.11 32.18C195.79 32.07 194.88 32.01 193.38 31.98V30.77L198.77 30.88L204.48 30.79C207.21 30.75 209.2 30.73 210.44 30.73C211.68 30.73 212.86 30.8 213.98 30.94C213.78 31.66 213.64 32.28 213.56 32.81C213.53 32.92 213.42 34.24 213.22 36.74H212.03C212.04 35.45 211.96 34.28 211.78 33.22C211.08 32.93 210.32 32.74 209.49 32.63C208.08 32.45 206.67 32.37 205.25 32.37C204.95 32.37 204.27 32.4 203.23 32.45C202.18 32.5 201.43 32.54 200.98 32.58C200.93 33.98 200.89 35.29 200.87 36.51L200.79 42.9C202.26 42.98 203.62 43.01 204.86 43.01C206.36 43.01 207.64 42.94 208.7 42.8C209.1 42.75 209.36 42.65 209.48 42.5C209.6 42.35 209.69 41.83 209.78 40.95L209.89 39.63H211.02V39.99L210.93 43.92L211.02 48.33H209.7L209.64 47.04C209.61 46.11 209.53 45.53 209.38 45.3C209.24 45.07 208.96 44.92 208.56 44.83C207.84 44.68 206.45 44.6 204.38 44.6C203.53 44.6 202.34 44.63 200.79 44.69C200.73 45.95 200.7 47.82 200.7 50.31C200.7 52.64 200.73 54.41 200.79 55.62C202.61 55.76 204.64 55.83 206.9 55.83C208.5 55.83 209.64 55.78 210.32 55.68C211 55.58 211.63 55.41 212.21 55.17C212.36 54.78 212.51 54.25 212.66 53.58C212.94 52.46 213.12 51.61 213.21 51.05H214.46C214.13 53.6 213.97 55.71 213.97 57.38C212.88 57.54 211.57 57.63 210.02 57.63L198.73 57.48C198.57 57.48 196.91 57.53 193.78 57.63V57.64Z" fill="#2B4158"/>
<path d="M223.37 57.64V56.45C224.69 56.44 225.56 56.34 225.98 56.15C226.16 56.07 226.28 55.96 226.36 55.79C226.49 55.54 226.57 54.88 226.62 53.8C226.7 52.14 226.73 50.7 226.73 49.49V34.08C226.73 33.66 226.71 33.39 226.65 33.27C226.55 33.04 226.32 32.77 225.97 32.46C225.74 32.26 225.48 32.13 225.19 32.07C224.9 32.01 224.24 31.98 223.21 31.97V30.78C225.31 30.83 226.64 30.86 227.18 30.86C228.1 30.86 229.01 30.84 229.92 30.78C230.99 32.18 231.78 33.21 232.28 33.88L236.19 38.7L241.9 45.58C243.73 47.77 245.2 49.5 246.31 50.76C247.02 51.59 247.61 52.25 248.09 52.73V38.91C248.09 37.68 248.05 36.23 247.96 34.56C247.91 33.51 247.83 32.87 247.71 32.61C247.62 32.45 247.49 32.33 247.31 32.25C246.89 32.07 246.03 31.98 244.72 31.97V30.78C246.21 30.83 247.71 30.86 249.24 30.86C250.68 30.86 251.98 30.84 253.15 30.78V31.97C251.84 31.98 250.98 32.08 250.56 32.25C250.38 32.33 250.26 32.45 250.18 32.63C250.05 32.87 249.97 33.53 249.92 34.62C249.84 36.28 249.81 37.72 249.81 38.91V48C249.81 49.84 249.84 53.28 249.9 58.3L247.95 57.73L247.5 57.64C247.42 57.62 247.35 57.58 247.29 57.53C247.2 57.47 246.96 57.22 246.57 56.77C245.52 55.59 244.75 54.69 244.26 54.09L241.82 51.01L228.41 35V49.5C228.41 50.74 228.45 52.19 228.54 53.87C228.59 54.92 228.67 55.56 228.79 55.8C228.88 55.98 229.01 56.1 229.19 56.18C229.61 56.36 230.47 56.45 231.78 56.46V57.65C230.67 57.56 229.45 57.52 228.11 57.52C226.65 57.52 225.06 57.57 223.35 57.65L223.37 57.64Z" fill="#2B4158"/>
<path d="M262.84 37.03H261.67C261.66 34.02 261.59 31.93 261.48 30.77C262.85 30.82 265.01 30.88 267.95 30.96C270.33 31.01 271.92 31.04 272.71 31.04C273.57 31.04 275.55 31 278.67 30.93C280.93 30.88 282.57 30.83 283.6 30.78C283.45 32.19 283.35 34.28 283.3 37.04H282.09L281.94 35.22C281.84 34.12 281.77 33.5 281.73 33.35C281.69 33.2 281.64 33.09 281.57 33.03C281.5 32.97 281.4 32.92 281.26 32.88C281.08 32.84 280.45 32.79 279.37 32.73C278.29 32.67 277.43 32.64 276.8 32.64H274.49C274.36 33.85 274.3 35.48 274.3 37.54V48.6C274.3 50.31 274.32 51.98 274.36 53.61C274.4 54.81 274.49 55.52 274.63 55.75C274.77 55.98 275.01 56.15 275.33 56.25C275.65 56.36 276.56 56.42 278.06 56.45V57.66C275.8 57.56 274.11 57.51 272.97 57.51C272.48 57.51 270.51 57.56 267.07 57.66V56.45C268.57 56.43 269.48 56.36 269.81 56.25C270.14 56.14 270.36 55.99 270.47 55.81C270.63 55.56 270.73 54.95 270.77 53.98C270.77 53.72 270.79 51.93 270.85 48.61V37.59C270.85 37.06 270.84 36.48 270.81 35.85L270.7 32.65H267.88C266.25 32.65 264.96 32.71 264 32.84C263.7 32.88 263.5 32.96 263.41 33.09C263.27 33.31 263.15 33.99 263.03 35.15L262.82 37.06L262.84 37.03Z" fill="#2B4158"/>
<path d="M302.61 56.43V57.64C299.93 57.54 298.16 57.49 297.32 57.49L291.48 57.64V56.43C292.97 56.41 293.88 56.34 294.2 56.23C294.53 56.12 294.75 55.97 294.88 55.79C295.03 55.54 295.13 54.93 295.16 53.96C295.17 53.7 295.2 51.91 295.24 48.59V39.84C295.24 38.13 295.22 36.45 295.18 34.81C295.14 33.61 295.05 32.9 294.91 32.68C294.76 32.46 294.53 32.3 294.21 32.19C293.89 32.08 292.98 32.02 291.48 31.99V30.78C293.89 30.87 295.75 30.91 297.06 30.91C298.37 30.91 300.17 30.87 302.62 30.78V31.99C301.12 32.02 300.21 32.08 299.89 32.19C299.57 32.3 299.35 32.45 299.22 32.63C299.07 32.88 298.97 33.49 298.94 34.46C298.93 34.71 298.9 36.5 298.86 39.83V48.58C298.86 50.29 298.88 51.96 298.92 53.59C298.96 54.79 299.05 55.5 299.19 55.73C299.33 55.96 299.57 56.13 299.89 56.23C300.21 56.34 301.12 56.4 302.62 56.43H302.61Z" fill="#2B4158"/>
<path d="M235.51 6.87H1.85C0.90007 6.87 0.13 7.64007 0.13 8.59C0.13 9.53993 0.90007 10.31 1.85 10.31H235.51C236.46 10.31 237.23 9.53993 237.23 8.59C237.23 7.64007 236.46 6.87 235.51 6.87Z" fill="#64275C"/>
<path d="M6.10352e-07 8.63L6.10352e-07 37.52C6.10352e-07 38.4699 0.77007 39.24 1.72 39.24C2.66993 39.24 3.44 38.4699 3.44 37.52L3.44 8.63C3.44 7.68007 2.66993 6.91 1.72 6.91C0.77007 6.91 6.10352e-07 7.68007 6.10352e-07 8.63Z" fill="#64275C"/>
<path d="M239.43 9.88L229.82 0.3C229.63 0.1 229.34 -0.01 229.04 0L226.66 0.03C225.83 0.03 225.39 0.85 225.91 1.38L234.47 9.88C234.59 10 234.65 10.15 234.67 10.3H239.63C239.61 10.15 239.55 10 239.43 9.88Z" fill="#64275C"/>
</g>
<defs>
<clipPath id="clip0_1_2">
<rect width="302.61" height="63.3" fill="white"/>
</clipPath>
</defs>
</svg>
